<svg width="16" height="16" viewBox="0 0 16 16" fill="none" xmlns="http://www.w3.org/2000/svg">
<path fill-rule="evenodd" clip-rule="evenodd" d="M0.999991 8.00001C0.999991 8.13261 1.05267 8.25979 1.14644 8.35356C1.24021 8.44733 1.36738 8.50001 1.49999 8.50001L13.293 8.50001L10.146 11.646C10.0521 11.7399 9.99936 11.8672 9.99936 12C9.99936 12.1328 10.0521 12.2601 10.146 12.354C10.2399 12.4479 10.3672 12.5006 10.5 12.5006C10.6328 12.5006 10.7601 12.4479 10.854 12.354L14.854 8.35401C14.9006 8.30756 14.9375 8.25238 14.9627 8.19164C14.9879 8.13089 15.0009 8.06577 15.0009 8.00001C15.0009 7.93424 14.9879 7.86912 14.9627 7.80837C14.9375 7.74763 14.9006 7.69245 14.854 7.64601L10.854 3.64601C10.8075 3.59952 10.7523 3.56264 10.6916 3.53748C10.6308 3.51232 10.5657 3.49937 10.5 3.49937C10.3672 3.49937 10.2399 3.55212 10.146 3.64601C10.0521 3.73989 9.99936 3.86723 9.99936 4.00001C9.99936 4.13278 10.0521 4.26012 10.146 4.35401L13.293 7.50001L1.49999 7.50001C1.36738 7.50001 1.24021 7.55268 1.14644 7.64645C1.05267 7.74022 0.999991 7.8674 0.999991 8.00001Z" fill="#212529"/>
</svg>
