<svg width="9" height="14" viewBox="0 0 9 14" fill="none" xmlns="http://www.w3.org/2000/svg">
<path fill-rule="evenodd" clip-rule="evenodd" d="M4.50065 -8.97653e-06C4.36804 -8.98812e-06 4.24087 0.052669 4.1471 0.146437C4.05333 0.240205 4.00065 0.367383 4.00065 0.499991L4.00065 12.293L0.854651 9.14599C0.760764 9.0521 0.633427 8.99936 0.500651 8.99936C0.367875 8.99936 0.240537 9.0521 0.146651 9.14599C0.0527641 9.23988 1.94786e-05 9.36721 1.9467e-05 9.49999C1.94554e-05 9.63277 0.052764 9.7601 0.146651 9.85399L4.14665 13.854C4.1931 13.9006 4.24827 13.9375 4.30902 13.9627C4.36976 13.9879 4.43488 14.0009 4.50065 14.0009C4.56642 14.0009 4.63154 13.9879 4.69228 13.9627C4.75303 13.9375 4.8082 13.9006 4.85465 13.854L8.85465 9.85399C8.90114 9.8075 8.93801 9.75231 8.96317 9.69158C8.98833 9.63084 9.00128 9.56574 9.00128 9.49999C9.00128 9.36722 8.94854 9.23988 8.85465 9.14599C8.76076 9.0521 8.63343 8.99936 8.50065 8.99936C8.36787 8.99936 8.24054 9.0521 8.14665 9.14599L5.00065 12.293L5.00065 0.499991C5.00065 0.367383 4.94797 0.240205 4.8542 0.146437C4.76044 0.0526691 4.63326 -8.96493e-06 4.50065 -8.97653e-06Z" fill="#D5D5D5"/>
</svg>
