<svg width="16" height="16" viewBox="0 0 16 16" fill="none" xmlns="http://www.w3.org/2000/svg">
<path fill-rule="evenodd" clip-rule="evenodd" d="M7.99998 1.00001C7.86737 1.00001 7.74019 1.05268 7.64643 1.14645C7.55266 1.24022 7.49998 1.3674 7.49998 1.50001L7.49998 13.293L4.35398 10.146C4.26009 10.0521 4.13276 9.99937 3.99998 9.99937C3.8672 9.99937 3.73987 10.0521 3.64598 10.146C3.55209 10.2399 3.49935 10.3672 3.49935 10.5C3.49935 10.6328 3.55209 10.7601 3.64598 10.854L7.64598 14.854C7.69242 14.9006 7.7476 14.9375 7.80835 14.9627C7.86909 14.9879 7.93421 15.0009 7.99998 15.0009C8.06575 15.0009 8.13087 14.9879 8.19161 14.9627C8.25236 14.9375 8.30753 14.9006 8.35398 14.854L12.354 10.854C12.4005 10.8075 12.4373 10.7523 12.4625 10.6916C12.4877 10.6309 12.5006 10.5658 12.5006 10.5C12.5006 10.3672 12.4479 10.2399 12.354 10.146C12.2601 10.0521 12.1328 9.99937 12 9.99937C11.8672 9.99937 11.7399 10.0521 11.646 10.146L8.49998 13.293L8.49998 1.50001C8.49998 1.3674 8.4473 1.24022 8.35353 1.14645C8.25976 1.05268 8.13259 1.00001 7.99998 1.00001Z" fill="#212529"/>
</svg>
