<svg width="28" height="28" viewBox="0 0 28 28" fill="none" xmlns="http://www.w3.org/2000/svg">
<rect width="28" height="28" fill="white"/>
<path d="M20.0463 2.70375C20.1509 2.80819 20.234 2.93224 20.2906 3.0688C20.3473 3.20548 20.3765 3.352 20.3765 3.49998C20.3765 3.64795 20.3473 3.79448 20.2906 3.93115C20.2339 4.06779 20.1508 4.1919 20.0461 4.29639L20.0462 4.29627L19.8695 4.11948L20.046 4.29648L20.0463 2.70375ZM20.0463 2.70375C19.9418 2.59906 19.8178 2.516 19.6812 2.45932C19.5445 2.40261 19.398 2.37341 19.25 2.37341C19.102 2.37341 18.9555 2.40261 18.8188 2.45932C18.6822 2.51599 18.5582 2.59904 18.4537 2.7037L20.0463 2.70375ZM10.3408 14L10.164 13.8232L9.98723 14L10.164 14.1767L10.3408 14ZM18.4535 2.70392L7.95392 13.2035L18.4535 2.70392ZM7.70932 14.4312C7.76599 14.5677 7.84904 14.6918 7.9537 14.7963L7.9537 13.2037C7.84904 13.3082 7.76599 13.4322 7.70932 13.5688C7.65261 13.7055 7.62341 13.852 7.62341 14C7.62341 14.148 7.65261 14.2945 7.70932 14.4312Z" fill="#0DC66C" stroke="#0DC66C" stroke-width="0.5"/>
</svg>
