<svg width="14" height="15" viewBox="0 0 14 15" fill="none" xmlns="http://www.w3.org/2000/svg">
<g clip-path="url(#clip0_541_3004)">
<path d="M9.49688 6.75193C9.53763 6.79257 9.56995 6.84084 9.59201 6.894C9.61406 6.94715 9.62542 7.00413 9.62542 7.06168C9.62542 7.11922 9.61406 7.1762 9.59201 7.22936C9.56995 7.28251 9.53763 7.33079 9.49688 7.37143L6.87188 9.99643C6.83124 10.0372 6.78297 10.0695 6.72981 10.0915C6.67666 10.1136 6.61968 10.125 6.56213 10.125C6.50459 10.125 6.44761 10.1136 6.39445 10.0915C6.3413 10.0695 6.29302 10.0372 6.25238 9.99643L4.93988 8.68393C4.89921 8.64325 4.86694 8.59496 4.84493 8.54181C4.82291 8.48866 4.81158 8.4317 4.81158 8.37418C4.81158 8.31665 4.82291 8.25969 4.84493 8.20654C4.86694 8.15339 4.89921 8.1051 4.93988 8.06443C5.02203 7.98228 5.13345 7.93612 5.24963 7.93612C5.30716 7.93612 5.36412 7.94745 5.41727 7.96947C5.47042 7.99148 5.51871 8.02375 5.55938 8.06443L6.56213 9.06805L8.87738 6.75193C8.91802 6.71118 8.9663 6.67886 9.01945 6.6568C9.07261 6.63475 9.12959 6.62339 9.18713 6.62339C9.24468 6.62339 9.30166 6.63475 9.35481 6.6568C9.40796 6.67886 9.45624 6.71118 9.49688 6.75193Z" fill="#6C757D"/>
<path d="M3.06213 0.499176C3.17817 0.499176 3.28945 0.54527 3.37149 0.627317C3.45354 0.709364 3.49963 0.820644 3.49963 0.936676V1.37418H10.4996V0.936676C10.4996 0.820644 10.5457 0.709364 10.6278 0.627317C10.7098 0.54527 10.8211 0.499176 10.9371 0.499176C11.0532 0.499176 11.1644 0.54527 11.2465 0.627317C11.3285 0.709364 11.3746 0.820644 11.3746 0.936676V1.37418H12.2496C12.7138 1.37418 13.1589 1.55855 13.4871 1.88674C13.8153 2.21493 13.9996 2.66005 13.9996 3.12418V12.7492C13.9996 13.2133 13.8153 13.6584 13.4871 13.9866C13.1589 14.3148 12.7138 14.4992 12.2496 14.4992H1.74963C1.2855 14.4992 0.840386 14.3148 0.512197 13.9866C0.184008 13.6584 -0.000366211 13.2133 -0.000366211 12.7492V3.12418C-0.000366211 2.66005 0.184008 2.21493 0.512197 1.88674C0.840386 1.55855 1.2855 1.37418 1.74963 1.37418H2.62463V0.936676C2.62463 0.820644 2.67073 0.709364 2.75277 0.627317C2.83482 0.54527 2.9461 0.499176 3.06213 0.499176ZM0.874634 3.99918V12.7492C0.874634 12.9812 0.966821 13.2038 1.13092 13.3679C1.29501 13.532 1.51757 13.6242 1.74963 13.6242H12.2496C12.4817 13.6242 12.7043 13.532 12.8684 13.3679C13.0324 13.2038 13.1246 12.9812 13.1246 12.7492V3.99918H0.874634Z" fill="#6C757D"/>
</g>
<defs>
<clipPath id="clip0_541_3004">
<rect width="14" height="14" fill="white" transform="translate(0 0.5)"/>
</clipPath>
</defs>
</svg>
