<svg width="26" height="21" viewBox="0 0 26 21" fill="none" xmlns="http://www.w3.org/2000/svg">
<path d="M23.0771 0.253906C23.4551 0.292528 23.75 0.611834 23.75 1V19.25H25L25.0771 19.2539C25.4551 19.2925 25.75 19.6118 25.75 20C25.75 20.3882 25.4551 20.7075 25.0771 20.7461L25 20.75H1C0.585786 20.75 0.25 20.4142 0.25 20C0.25 19.5858 0.585786 19.25 1 19.25H2.25V7L2.25391 6.92285C2.29253 6.54488 2.61183 6.25 3 6.25H8.91699V4C8.91699 3.58579 9.25278 3.25 9.66699 3.25H15.25V1L15.2539 0.922852C15.2925 0.544882 15.6118 0.25 16 0.25H23L23.0771 0.253906ZM16.75 4C16.75 4.41421 16.4142 4.75 16 4.75H10.417V7C10.417 7.41421 10.0812 7.75 9.66699 7.75H3.75V19.25H22.25V1.75H16.75V4ZM8.63477 9.60156L11.0254 16H9.61914L9.17578 14.6514H6.875L6.43262 16H5.03125L7.4082 9.60156H8.63477ZM13.1162 14.9717H15.9111V16H11.7979V9.60156H13.1162V14.9717ZM18.166 14.9717H20.9609V16H16.8477V9.60156H18.166V14.9717ZM7.21387 13.6182H8.83496L8.02344 11.1504L7.21387 13.6182Z" fill="#1B5B05"/>
</svg>
