<svg width="24" height="22" viewBox="0 0 24 22" fill="none" xmlns="http://www.w3.org/2000/svg">
<path d="M7.5 2C7.5 1.60218 7.34196 1.22064 7.06066 0.93934C6.77936 0.658035 6.39782 0.5 6 0.5H3C2.60218 0.5 2.22064 0.658035 1.93934 0.93934C1.65804 1.22064 1.5 1.60218 1.5 2V20H0.75C0.551088 20 0.360322 20.079 0.219669 20.2197C0.0790171 20.3603 0 20.5511 0 20.75C0 20.9489 0.0790171 21.1397 0.219669 21.2803C0.360322 21.421 0.551088 21.5 0.75 21.5H23.25C23.4489 21.5 23.6397 21.421 23.7803 21.2803C23.921 21.1397 24 20.9489 24 20.75C24 20.5511 23.921 20.3603 23.7803 20.2197C23.6397 20.079 23.4489 20 23.25 20H22.5V15.5C22.5 15.1022 22.342 14.7206 22.0607 14.4393C21.7794 14.158 21.3978 14 21 14H18C17.6022 14 17.2206 14.158 16.9393 14.4393C16.658 14.7206 16.5 15.1022 16.5 15.5V20H15V9.5C15 9.10218 14.842 8.72064 14.5607 8.43934C14.2794 8.15804 13.8978 8 13.5 8H10.5C10.1022 8 9.72064 8.15804 9.43934 8.43934C9.15804 8.72064 9 9.10218 9 9.5V20H7.5V2ZM6 20H3V2H6V20ZM10.5 20V9.5H13.5V20H10.5ZM18 20V15.5H21V20H18Z" fill="#1B5B05"/>
</svg>
