<svg width="14" height="15" viewBox="0 0 14 15" fill="none" xmlns="http://www.w3.org/2000/svg">
<g clip-path="url(#clip0_541_5084)">
<path d="M6.99963 3.56168C6.99963 3.44564 6.95354 3.33436 6.87149 3.25232C6.78945 3.17027 6.67817 3.12418 6.56213 3.12418C6.4461 3.12418 6.33482 3.17027 6.25277 3.25232C6.17073 3.33436 6.12463 3.44564 6.12463 3.56168V8.37418C6.12466 8.45129 6.14507 8.52703 6.18379 8.59372C6.22251 8.66041 6.27817 8.71568 6.34513 8.75393L9.40763 10.5039C9.50813 10.5582 9.62589 10.5711 9.73575 10.5397C9.8456 10.5084 9.93882 10.4353 9.9955 10.3361C10.0522 10.2369 10.0678 10.1195 10.0391 10.0089C10.0103 9.89837 9.93945 9.80344 9.84163 9.74443L6.99963 8.12043V3.56168Z" fill="#6C757D"/>
<path d="M6.99963 14.4992C8.85615 14.4992 10.6366 13.7617 11.9494 12.4489C13.2621 11.1362 13.9996 9.35569 13.9996 7.49918C13.9996 5.64266 13.2621 3.86218 11.9494 2.54943C10.6366 1.23667 8.85615 0.499176 6.99963 0.499176C5.14312 0.499176 3.36264 1.23667 2.04989 2.54943C0.737132 3.86218 -0.000366211 5.64266 -0.000366211 7.49918C-0.000366211 9.35569 0.737132 11.1362 2.04989 12.4489C3.36264 13.7617 5.14312 14.4992 6.99963 14.4992ZM13.1246 7.49918C13.1246 9.12363 12.4793 10.6815 11.3307 11.8302C10.182 12.9789 8.62409 13.6242 6.99963 13.6242C5.37518 13.6242 3.81727 12.9789 2.6686 11.8302C1.51994 10.6815 0.874634 9.12363 0.874634 7.49918C0.874634 5.87472 1.51994 4.31681 2.6686 3.16815C3.81727 2.01949 5.37518 1.37418 6.99963 1.37418C8.62409 1.37418 10.182 2.01949 11.3307 3.16815C12.4793 4.31681 13.1246 5.87472 13.1246 7.49918Z" fill="#6C757D"/>
</g>
<defs>
<clipPath id="clip0_541_5084">
<rect width="14" height="14" fill="white" transform="translate(0 0.5)"/>
</clipPath>
</defs>
</svg>
