<svg width="20" height="20" viewBox="0 0 20 20" fill="none" xmlns="http://www.w3.org/2000/svg">
<g clip-path="url(#clip0_508_5623)">
<path d="M13.1307 10.0058L13.1307 10.0057C13.295 9.84148 13.5177 9.74921 13.75 9.74921C13.9823 9.74921 14.205 9.84148 14.3693 10.0057C14.5335 10.17 14.6258 10.3927 14.6258 10.625C14.6258 10.8573 14.5335 11.08 14.3693 11.2443L10.6195 14.9941L13.1307 10.0058ZM13.1307 10.0058L10.875 12.2625M13.1307 10.0058L10.875 12.2625M10.875 12.2625V1.875C10.875 1.64294 10.7828 1.42038 10.6187 1.25628C10.4546 1.09219 10.2321 1 10 1C9.76794 1 9.54538 1.09219 9.38128 1.25628C9.21719 1.42038 9.125 1.64294 9.125 1.875V12.2625L6.86932 10.0058L6.86928 10.0057C6.70503 9.84148 6.48227 9.74921 6.25 9.74921C6.01773 9.74921 5.79497 9.84148 5.63072 10.0057C5.46648 10.17 5.37421 10.3927 5.37421 10.625C5.37421 10.8573 5.46648 11.08 5.63072 11.2443L9.3805 14.9941L10.875 12.2625ZM9.66464 15.1843C9.55843 15.1402 9.46196 15.0757 9.38072 14.9943L9.66464 15.1843ZM9.66464 15.1843C9.77095 15.2284 9.88491 15.2511 10 15.2511M9.66464 15.1843L10 15.2511M10 15.2511C10.1151 15.2511 10.2291 15.2284 10.3354 15.1843M10 15.2511L10.3354 15.1843M10.3354 15.1843C10.4416 15.1402 10.538 15.0757 10.6193 14.9943L10.3354 15.1843ZM1.24372 12.3813C1.07962 12.2172 0.857065 12.125 0.625 12.125C0.392935 12.125 0.170375 12.2172 0.00628158 12.3813C-0.157813 12.5454 -0.25 12.7679 -0.25 13V16.125C-0.25 16.8543 0.0397313 17.5538 0.555456 18.0695C1.07118 18.5853 1.77065 18.875 2.5 18.875H17.5C18.2293 18.875 18.9288 18.5853 19.4445 18.0695C19.9603 17.5538 20.25 16.8543 20.25 16.125V13C20.25 12.7679 20.1578 12.5454 19.9937 12.3813C19.8296 12.2172 19.6071 12.125 19.375 12.125C19.1429 12.125 18.9204 12.2172 18.7563 12.3813C18.5922 12.5454 18.5 12.7679 18.5 13V16.125C18.5 16.3902 18.3946 16.6446 18.2071 16.8321C18.0196 17.0196 17.7652 17.125 17.5 17.125H2.5C2.23478 17.125 1.98043 17.0196 1.79289 16.8321C1.60536 16.6446 1.5 16.3902 1.5 16.125V13C1.5 12.7679 1.40781 12.5454 1.24372 12.3813Z" fill="#FAFBF9" stroke="#FAFBF9" stroke-width="0.5"/>
</g>
<defs>
<clipPath id="clip0_508_5623">
<rect width="20" height="20" fill="white"/>
</clipPath>
</defs>
</svg>
