<svg width="32" height="32" viewBox="0 0 32 32" fill="none" xmlns="http://www.w3.org/2000/svg">
<g opacity="0.5">
<rect width="32" height="32" fill="white" fill-opacity="0.01"/>
<g clip-path="url(#clip0_277_100586)">
<rect width="16" height="16" transform="translate(8 8)" fill="white" fill-opacity="0.01"/>
<g clip-path="url(#clip1_277_100586)">
<path d="M8.29266 8.29223C8.48019 8.10476 8.7345 7.99944 8.99966 7.99944C9.26483 7.99944 9.51914 8.10476 9.70666 8.29223L15.9997 14.5852L22.2927 8.29223C22.3849 8.19672 22.4953 8.12053 22.6173 8.06813C22.7393 8.01572 22.8705 7.98813 23.0033 7.98698C23.136 7.98582 23.2677 8.01112 23.3906 8.06141C23.5135 8.11169 23.6252 8.18594 23.7191 8.27983C23.813 8.37372 23.8872 8.48538 23.9375 8.60827C23.9878 8.73117 24.0131 8.86285 24.0119 8.99563C24.0108 9.12841 23.9832 9.25963 23.9308 9.38163C23.8784 9.50364 23.8022 9.61398 23.7067 9.70623L17.4137 15.9992L23.7067 22.2922C23.8888 22.4808 23.9896 22.7334 23.9873 22.9956C23.9851 23.2578 23.8799 23.5086 23.6945 23.694C23.5091 23.8795 23.2583 23.9846 22.9961 23.9869C22.7339 23.9892 22.4813 23.8884 22.2927 23.7062L15.9997 17.4132L9.70666 23.7062C9.51806 23.8884 9.26546 23.9892 9.00326 23.9869C8.74107 23.9846 8.49025 23.8795 8.30485 23.694C8.11944 23.5086 8.01427 23.2578 8.01199 22.9956C8.00971 22.7334 8.11051 22.4808 8.29266 22.2922L14.5857 15.9992L8.29266 9.70623C8.10519 9.5187 7.99988 9.26439 7.99988 8.99923C7.99988 8.73406 8.10519 8.47975 8.29266 8.29223Z" fill="black"/>
</g>
</g>
</g>
<defs>
<clipPath id="clip0_277_100586">
<rect width="16" height="16" fill="white" transform="translate(8 8)"/>
</clipPath>
<clipPath id="clip1_277_100586">
<rect width="16" height="16" fill="white" transform="translate(8 8)"/>
</clipPath>
</defs>
</svg>
